<?xml version="1.0" standalone="no"?><!DOCTYPE svg PUBLIC "-//W3C//DTD SVG 1.1//EN" "http://www.w3.org/Graphics/SVG/1.1/DTD/svg11.dtd"><svg t="1588345072551" class="icon" viewBox="0 0 1024 1024" version="1.1" xmlns="http://www.w3.org/2000/svg" p-id="2113" xmlns:xlink="http://www.w3.org/1999/xlink" width="200" height="200"><defs><style type="text/css"></style></defs><path d="M413.5 201.64c13.49 0 25.72 6.11 33.64 19.62 5.41 9.22 7.72 21.48 7.83 32.4 0.68 70.52 0.33 141 0.43 211.58 0 8.73 0.76 17.45 1.16 26.18 3.05 0 8.77-43.34 9.22-65 0.62-29.71 16.94-46.72 43.94-46.72h1c26.1 0.4 42.14 17.5 43 46.25 0.6 20.46 0.76 40.94 1.29 61.41v0.08c0.66 0 8.61-14.9 9.12-24.09 1.51-27.67 18-44.3 44-44.3h0.94c25.11 0.38 41.75 17.19 43 43.77 0.67 14.72 3 46.84 7 53.14 1.58-10.45 1.49-55.54 24.8-57.38 1.16-0.09 2.33-0.14 3.48-0.14 19.85 0 38.4 13.3 42.54 32.41a69.8 69.8 0 0 1 1.06 14.69c0 63.14 2.27 126.41-1.07 189.38-1.57 29.53-13.34 58.66-21.58 87.66-11.17 39.29-24.34 78-34.7 117.5-3.87 14.74-10.43 20.5-24.9 20.5h-0.2q-70.28-0.24-140.57-0.24-49 0-98.07 0.1h-0.12c-15 0-21.84-5.93-23-21.61-4.15-55.91-18.65-107.32-59.53-149.59-13.54-14-18.6-36-28.62-53.69-17.64-31.16-34.28-63.13-54.9-92.24-12.25-17.28-19.46-32.36-8.15-51.14 6.11-10.14 18.86-16.45 32.15-16.45a39.51 39.51 0 0 1 22.9 7.13c22.32 15.75 41 36.65 61.15 55.48 3.46 3.24 6.21 7.27 13.93 16.42 0.71-15 1.5-24.12 1.51-33.21 0.12-110.71 0.34-221.43 0-332.14-0.07-22.73 9.9-38.58 30.53-45.19a52 52 0 0 1 15.85-2.61m0-48a100 100 0 0 0-30.5 4.9c-40.14 12.87-64 46.91-63.88 91.05q0.4 127.39 0.11 254.8l-1-0.72a87.21 87.21 0 0 0-50.57-15.91c-30.45 0-58.52 15.2-73.27 39.68-29.11 48.34 0.41 90 10.11 103.67 14.86 21 27.71 44 41.3 68.49q5.47 9.84 11 19.63a168.23 168.23 0 0 1 7.14 15.65c6.18 14.48 13.88 32.52 28.67 47.81 27.92 28.87 42.15 65.81 46.16 119.77 3 40.75 30.17 66.06 70.87 66.06 32.88-0.06 65.53-0.1 98.19-0.1q70.2 0 140.4 0.24c36.3 0 62.3-20.52 71.69-56.3 5.81-22.11 12.47-43.81 19.53-66.77 5.09-16.57 10.18-33.14 14.92-49.8 2-6.9 4.13-13.79 6.3-20.7 7.29-23.15 15.54-49.39 17-77.54 2.48-46.67 2-93.5 1.52-138.78-0.18-17.73-0.37-35.46-0.38-53.18a113.89 113.89 0 0 0-2.15-24.84c-8.82-40.69-46.44-70.23-89.45-70.23h-2.93c-15.85-24-42.47-38.95-74.55-39.44h-1.67a100.38 100.38 0 0 0-20.79 2.13c-15.45-25.46-42.39-41-75.94-41.48h-1.71c-2.14 0-4.26 0.06-6.34 0.19q-0.08-39.36-0.41-78.71c-0.13-12-2.16-35.3-14.42-56.22-16.17-27.55-43.52-43.34-75.05-43.34z" fill="#409EFF" p-id="2114"></path></svg>